<?xml version="1.0" encoding="UTF-8"?>
<svg version="1.1" xmlns="http://www.w3.org/2000/svg" width="96" height="96">
<path d="M0 0 C6.54337123 4.3143107 10.35330617 9.65542461 13 17 C13.33078499 18.63841939 13.62320523 20.28509684 13.875 21.9375 C14.72532973 27.33709379 17.34479456 31.00474034 20.5390625 35.359375 C22.28538428 38.51582827 22.45321051 40.44404058 22 44 C19.14925356 46.31141604 17.6860549 47 14 47 C14.02320312 47.71285156 14.04640625 48.42570312 14.0703125 49.16015625 C14.19945082 56.0137113 14.1161272 61.41178431 10.5625 67.4375 C6.35349622 70.00396572 1.80348696 69.29814747 -3 69 C-3.33 71.64 -3.66 74.28 -4 77 C-15.88 77 -27.76 77 -40 77 C-40.66 71.39 -41.32 65.78 -42 60 C-44.20625385 55.01194781 -46.49546379 50.50908935 -49.28125 45.86328125 C-53.57408452 37.81421653 -53.24083688 27.71225498 -51.33984375 18.9609375 C-48.37076045 10.6577868 -41.90511602 3.04666653 -34 -1 C-24.23043091 -4.43744098 -9.25473203 -5.37619288 0 0 Z " fill="#FEB64C" transform="translate(66,11)"/>
<path d="M0 0 C3.29159316 -0.05790353 6.58305603 -0.09356261 9.875 -0.125 C10.81214844 -0.14175781 11.74929687 -0.15851562 12.71484375 -0.17578125 C13.61074219 -0.18222656 14.50664063 -0.18867188 15.4296875 -0.1953125 C16.25710449 -0.20578613 17.08452148 -0.21625977 17.93701172 -0.22705078 C20 0 20 0 22 2 C22.22705078 4.06298828 22.22705078 4.06298828 22.1953125 6.5703125 C22.18886719 7.46621094 22.18242188 8.36210937 22.17578125 9.28515625 C22.15902344 10.22230469 22.14226563 11.15945312 22.125 12.125 C22.11597656 13.06988281 22.10695313 14.01476563 22.09765625 14.98828125 C22.07404522 17.32577292 22.04111516 19.66276123 22 22 C19.36 22 16.72 22 14 22 C14.185625 22.804375 14.37125 23.60875 14.5625 24.4375 C14.706875 25.283125 14.85125 26.12875 15 27 C14 28 14 28 10.9375 28.0625 C9.968125 28.041875 8.99875 28.02125 8 28 C6.875 24.25 6.875 24.25 8 22 C5.36 22 2.72 22 0 22 C0 19.36 0 16.72 0 14 C-1.2065625 14.2784375 -1.2065625 14.2784375 -2.4375 14.5625 C-3.283125 14.706875 -4.12875 14.85125 -5 15 C-6 14 -6 14 -6.0625 10.9375 C-6.041875 9.968125 -6.02125 8.99875 -6 8 C-2.25 6.875 -2.25 6.875 0 8 C0 5.36 0 2.72 0 0 Z " fill="#3A8D3B" transform="translate(36,20)"/>
<path d="M0 0 C2.64 0 5.28 0 8 0 C8 1.65 8 3.3 8 5 C9.98 5 11.96 5 14 5 C14 3.35 14 1.7 14 0 C16.64 0 19.28 0 22 0 C22.05790353 3.29159316 22.09356261 6.58305603 22.125 9.875 C22.14175781 10.81214844 22.15851562 11.74929687 22.17578125 12.71484375 C22.18222656 13.61074219 22.18867187 14.50664063 22.1953125 15.4296875 C22.20578613 16.25710449 22.21625977 17.08452148 22.22705078 17.93701172 C22 20 22 20 20 22 C17.93701172 22.22705078 17.93701172 22.22705078 15.4296875 22.1953125 C14.53378906 22.18886719 13.63789062 22.18242188 12.71484375 22.17578125 C11.77769531 22.15902344 10.84054688 22.14226562 9.875 22.125 C8.93011719 22.11597656 7.98523437 22.10695313 7.01171875 22.09765625 C4.67422708 22.07404522 2.33723877 22.04111516 0 22 C0 19.36 0 16.72 0 14 C1.65 14 3.3 14 5 14 C5 12.02 5 10.04 5 8 C3.35 8 1.7 8 0 8 C0 5.36 0 2.72 0 0 Z " fill="#DC2C00" transform="translate(36,42)"/>
</svg>
