<?xml version="1.0" encoding="UTF-8"?>
<svg version="1.1" xmlns="http://www.w3.org/2000/svg" width="64" height="64">
<path d="M0 0 C0.87100342 -0.00945648 1.74200684 -0.01891296 2.6394043 -0.02865601 C3.57695557 -0.02258331 4.51450684 -0.01651062 5.48046875 -0.01025391 C6.44573486 -0.01312408 7.41100098 -0.01599426 8.40551758 -0.01895142 C10.44645779 -0.02099302 12.48741752 -0.01545648 14.52832031 -0.00292969 C17.65604315 0.01312239 20.78247371 -0.00277536 23.91015625 -0.02197266 C25.89192994 -0.01999024 27.87370283 -0.0161466 29.85546875 -0.01025391 C30.79302002 -0.0163266 31.73057129 -0.02239929 32.6965332 -0.02865601 C33.56753662 -0.01919952 34.43854004 -0.00974304 35.3359375 0 C36.10188232 0.00238678 36.86782715 0.00477356 37.65698242 0.00723267 C40.23367724 0.49534851 41.11702256 1.29826709 42.66796875 3.38818359 C42.96615453 6.01071817 43.08855799 8.39112325 43.06640625 11.01318359 C43.06927643 11.75648926 43.07214661 12.49979492 43.07510376 13.265625 C43.07714351 14.8357825 43.07161975 16.40596545 43.05908203 17.97607422 C43.04302578 20.37964692 43.05893227 22.7815382 43.078125 25.18505859 C43.07614255 26.71110397 43.07229884 28.2371483 43.06640625 29.76318359 C43.07551529 30.84140381 43.07551529 30.84140381 43.08480835 31.94140625 C43.04400182 34.83601884 42.99702644 36.89465875 41.36572266 39.34130859 C38.4865948 41.11664657 35.93593891 40.74468943 32.66796875 40.38818359 C32.00796875 39.39818359 31.34796875 38.40818359 30.66796875 37.38818359 C29.67796875 37.38818359 28.68796875 37.38818359 27.66796875 37.38818359 C27.00796875 38.37818359 26.34796875 39.36818359 25.66796875 40.38818359 C22.90850261 40.69148698 20.4230119 40.80653217 17.66796875 40.76318359 C16.930625 40.77478516 16.19328125 40.78638672 15.43359375 40.79833984 C13.29296875 40.78662109 13.29296875 40.78662109 9.66796875 40.38818359 C9.00796875 39.39818359 8.34796875 38.40818359 7.66796875 37.38818359 C6.67796875 37.38818359 5.68796875 37.38818359 4.66796875 37.38818359 C4.00796875 38.37818359 3.34796875 39.36818359 2.66796875 40.38818359 C-3.27977663 41.03702854 -3.27977663 41.03702854 -6.02978516 39.34130859 C-8.03175418 36.33873038 -7.75994085 33.25174232 -7.73046875 29.76318359 C-7.73333893 29.01987793 -7.73620911 28.27657227 -7.73916626 27.51074219 C-7.74120601 25.94058469 -7.73568225 24.37040173 -7.72314453 22.80029297 C-7.70708828 20.39672027 -7.72299477 17.99482899 -7.7421875 15.59130859 C-7.74020505 14.06526322 -7.73636134 12.53921888 -7.73046875 11.01318359 C-7.73957779 9.93496338 -7.73957779 9.93496338 -7.74887085 8.83496094 C-7.67867032 3.85528343 -7.67867032 3.85528343 -6.07852173 1.69906616 C-3.89429739 0.05962888 -2.71301051 0.00845408 0 0 Z " fill="#37CFED" transform="translate(14.33203125,9.61181640625)"/>
<path d="M0 0 C0.66 0 1.32 0 2 0 C2 7.92 2 15.84 2 24 C1.01 24 0.02 24 -1 24 C-3 22 -3 22 -4 17 C-8.95 17 -13.9 17 -19 17 C-19.33 15.68 -19.66 14.36 -20 13 C-19 12 -19 12 -15.62109375 11.90234375 C-14.22652923 11.90901631 -12.83198257 11.92097468 -11.4375 11.9375 C-10.72658203 11.94201172 -10.01566406 11.94652344 -9.28320312 11.95117188 C-7.52209987 11.96299136 -5.76103964 11.98092737 -4 12 C-4 10.68 -4 9.36 -4 8 C-8.95 8 -13.9 8 -19 8 C-19.33 6.68 -19.66 5.36 -20 4 C-19.67 3.67 -19.34 3.34 -19 3 C-15.62893641 3.00754153 -12.27039255 3.07870118 -8.90234375 3.21484375 C-4.70099017 3.39539627 -4.70099017 3.39539627 -1.1171875 1.4921875 C-0.56417969 0.75355469 -0.56417969 0.75355469 0 0 Z " fill="#2FB1CB" transform="translate(55,23)"/>
<path d="M0 0 C1.30710937 -0.00257812 2.61421875 -0.00515625 3.9609375 -0.0078125 C4.63479492 -0.00362305 5.30865234 0.00056641 6.00292969 0.00488281 C8.05694103 0.01559601 10.11007796 0.00495737 12.1640625 -0.0078125 C13.47117187 -0.00523438 14.77828125 -0.00265625 16.125 0 C17.31222656 0.00225586 18.49945313 0.00451172 19.72265625 0.00683594 C23.13614755 0.27133161 25.87632082 1.04474127 29.0625 2.265625 C29.0625 2.925625 29.0625 3.585625 29.0625 4.265625 C24.60192112 5.97483464 20.89205136 6.52219208 16.125 6.53125 C14.81789063 6.53382812 13.51078125 6.53640625 12.1640625 6.5390625 C11.49020508 6.53487305 10.81634766 6.53068359 10.12207031 6.52636719 C8.06805897 6.51565399 6.01492204 6.52629263 3.9609375 6.5390625 C2.65382813 6.53648438 1.34671875 6.53390625 0 6.53125 C-1.18722656 6.52899414 -2.37445313 6.52673828 -3.59765625 6.52441406 C-7.01114755 6.25991839 -9.75132082 5.48650873 -12.9375 4.265625 C-12.9375 3.605625 -12.9375 2.945625 -12.9375 2.265625 C-8.47692112 0.55641536 -4.76705136 0.00905792 0 0 Z " fill="#000000" transform="translate(23.9375,57.734375)"/>
<path d="M0 0 C0.84755859 0.00966797 1.69511719 0.01933594 2.56835938 0.02929688 C3.44943359 0.05443359 4.33050781 0.07957031 5.23828125 0.10546875 C6.13095703 0.11900391 7.02363281 0.13253906 7.94335938 0.14648438 C10.14644291 0.18182796 12.34830707 0.23116382 14.55078125 0.29296875 C14.17578125 2.23046875 14.17578125 2.23046875 13.55078125 4.29296875 C10.71808459 5.70931708 8.07611687 5.63926925 4.92578125 5.85546875 C3.73726562 5.93925781 2.54875 6.02304688 1.32421875 6.109375 C0.40898437 6.16996094 -0.50625 6.23054687 -1.44921875 6.29296875 C-1.48660156 7.19660156 -1.52398438 8.10023437 -1.5625 9.03125 C-1.62824219 10.21074219 -1.69398437 11.39023437 -1.76171875 12.60546875 C-1.81972656 13.77722656 -1.87773437 14.94898438 -1.9375 16.15625 C-2.44921875 19.29296875 -2.44921875 19.29296875 -3.8671875 21.2109375 C-5.44921875 22.29296875 -5.44921875 22.29296875 -7.44921875 22.29296875 C-7.53632164 19.18897897 -7.58964184 16.08530327 -7.63671875 12.98046875 C-7.66185547 12.09939453 -7.68699219 11.21832031 -7.71289062 10.31054688 C-7.72255859 9.46298828 -7.73222656 8.61542969 -7.7421875 7.7421875 C-7.75789795 6.96190186 -7.7736084 6.18161621 -7.78979492 5.37768555 C-7.44921875 3.29296875 -7.44921875 3.29296875 -6.20898438 1.53320312 C-3.97775119 -0.03930861 -2.71239559 -0.05461199 0 0 Z " fill="#72DDF2" transform="translate(14.44921875,9.70703125)"/>
<path d="M0 0 C3.09058342 1.19423818 4.33195131 2.8262737 5.83984375 5.7109375 C5.50984375 7.3609375 5.17984375 9.0109375 4.83984375 10.7109375 C-0.77015625 10.7109375 -6.38015625 10.7109375 -12.16015625 10.7109375 C-12.16015625 4.7109375 -12.16015625 4.7109375 -9.66015625 1.7734375 C-6.41473774 -0.60294714 -3.88879559 -0.7911945 0 0 Z " fill="#9938C3" transform="translate(25.16015625,29.2890625)"/>
<path d="M0 0 C1.39456452 0.00667256 2.78911118 0.01863093 4.18359375 0.03515625 C4.89451172 0.03966797 5.60542969 0.04417969 6.33789062 0.04882812 C8.09899388 0.06064761 9.86005411 0.07858362 11.62109375 0.09765625 C12.18359375 2.03515625 12.18359375 2.03515625 12.62109375 4.09765625 C11.62109375 5.09765625 11.62109375 5.09765625 8.2421875 5.1953125 C6.84762298 5.18863994 5.45307632 5.17668157 4.05859375 5.16015625 C3.34767578 5.15564453 2.63675781 5.15113281 1.90429688 5.14648438 C0.14319362 5.13466489 -1.61786661 5.11672888 -3.37890625 5.09765625 C-3.94140625 3.16015625 -3.94140625 3.16015625 -4.37890625 1.09765625 C-3.37890625 0.09765625 -3.37890625 0.09765625 0 0 Z " fill="#9938C3" transform="translate(39.37890625,34.90234375)"/>
<path d="M0 0 C1.39456452 0.00667256 2.78911118 0.01863093 4.18359375 0.03515625 C4.89451172 0.03966797 5.60542969 0.04417969 6.33789062 0.04882812 C8.09899388 0.06064761 9.86005411 0.07858362 11.62109375 0.09765625 C12.18359375 2.03515625 12.18359375 2.03515625 12.62109375 4.09765625 C11.62109375 5.09765625 11.62109375 5.09765625 8.2421875 5.1953125 C6.84762298 5.18863994 5.45307632 5.17668157 4.05859375 5.16015625 C3.34767578 5.15564453 2.63675781 5.15113281 1.90429688 5.14648438 C0.14319362 5.13466489 -1.61786661 5.11672888 -3.37890625 5.09765625 C-3.94140625 3.16015625 -3.94140625 3.16015625 -4.37890625 1.09765625 C-3.37890625 0.09765625 -3.37890625 0.09765625 0 0 Z " fill="#9938C3" transform="translate(39.37890625,25.90234375)"/>
<path d="M0 0 C1.39456452 0.00667256 2.78911118 0.01863093 4.18359375 0.03515625 C4.89451172 0.03966797 5.60542969 0.04417969 6.33789062 0.04882812 C8.09899388 0.06064761 9.86005411 0.07858362 11.62109375 0.09765625 C12.18359375 2.03515625 12.18359375 2.03515625 12.62109375 4.09765625 C11.62109375 5.09765625 11.62109375 5.09765625 8.2421875 5.1953125 C6.84762298 5.18863994 5.45307632 5.17668157 4.05859375 5.16015625 C3.34767578 5.15564453 2.63675781 5.15113281 1.90429688 5.14648438 C0.14319362 5.13466489 -1.61786661 5.11672888 -3.37890625 5.09765625 C-3.94140625 3.16015625 -3.94140625 3.16015625 -4.37890625 1.09765625 C-3.37890625 0.09765625 -3.37890625 0.09765625 0 0 Z " fill="#9938C3" transform="translate(39.37890625,16.90234375)"/>
<path d="M0 0 C1.32278481 5.41139241 1.32278481 5.41139241 -0.0625 7.9375 C-2.91093248 9.49954362 -4.93504903 8.74921024 -8 8 C-9.32278481 2.58860759 -9.32278481 2.58860759 -7.9375 0.0625 C-5.08906752 -1.49954362 -3.06495097 -0.74921024 0 0 Z " fill="#963CC4" transform="translate(26,18)"/>
<path d="M0 0 C0.33 0 0.66 0 1 0 C1 2.31 1 4.62 1 7 C1.99 7 2.98 7 4 7 C4.3669579 13.48292295 4.3669579 13.48292295 2.625 15.9375 C1 17 1 17 -1 17 C-1.02684679 14.35409986 -1.04676357 11.70846904 -1.0625 9.0625 C-1.07087891 8.30775391 -1.07925781 7.55300781 -1.08789062 6.77539062 C-1.09652441 4.85005687 -1.05224333 2.92464419 -1 1 C-0.67 0.67 -0.34 0.34 0 0 Z " fill="#71DDF2" transform="translate(8,15)"/>
<path d="M0 0 C0 0.99 0 1.98 0 3 C-1.98 3.33 -3.96 3.66 -6 4 C-6.33 5.98 -6.66 7.96 -7 10 C-7.99 10 -8.98 10 -10 10 C-10.35915493 3.65492958 -10.35915493 3.65492958 -8.9375 1.0625 C-5.98831309 -0.55479605 -3.29132441 -0.18630138 0 0 Z " fill="#F4FCFE" transform="translate(19,12)"/>
</svg>
