<svg xmlns="http://www.w3.org/2000/svg" xmlns:xlink="http://www.w3.org/1999/xlink" viewBox="0,0,256,256" width="50px" height="50px" fill-rule="nonzero"><g fill="#6be9ff" fill-rule="nonzero" stroke="none" stroke-width="1" stroke-linecap="butt" stroke-linejoin="miter" stroke-miterlimit="10" stroke-dasharray="" stroke-dashoffset="0" font-family="none" font-weight="none" font-size="none" text-anchor="none" style="mix-blend-mode: normal"><g transform="scale(5.33333,5.33333)"><path d="M7,6h15c0.552,0 1,0.448 1,1v15c0,0.552 -0.448,1 -1,1h-15c-0.552,0 -1,-0.448 -1,-1v-15c0,-0.552 0.448,-1 1,-1z"></path><path d="M25.042,21.958v-14.958c0,-0.552 0.448,-1 1,-1h14.958c0.552,0 1,0.448 1,1v14.958c0,0.552 -0.448,1 -1,1h-14.958c-0.553,0 -1,-0.447 -1,-1z"></path><path d="M7,25h15c0.552,0 1,0.448 1,1v15c0,0.552 -0.448,1 -1,1h-15c-0.552,0 -1,-0.448 -1,-1v-15c0,-0.552 0.448,-1 1,-1z"></path><path d="M25,41v-15c0,-0.552 0.448,-1 1,-1h15c0.552,0 1,0.448 1,1v15c0,0.552 -0.448,1 -1,1h-15c-0.552,0 -1,-0.448 -1,-1z"></path></g></g></svg>