<?xml version="1.0" encoding="UTF-8"?>
<svg version="1.1" xmlns="http://www.w3.org/2000/svg" width="64" height="64">
<path d="M0 0 C0.90492187 0.02320313 1.80984375 0.04640625 2.7421875 0.0703125 C4.10730469 0.09738281 4.10730469 0.09738281 5.5 0.125 C6.19867188 0.14820313 6.89734375 0.17140625 7.6171875 0.1953125 C7.6171875 2.1753125 7.6171875 4.1553125 7.6171875 6.1953125 C19.1671875 6.1953125 30.7171875 6.1953125 42.6171875 6.1953125 C43.1121875 8.6703125 43.1121875 8.6703125 43.6171875 11.1953125 C46.0921875 11.6903125 46.0921875 11.6903125 48.6171875 12.1953125 C48.64184496 16.3070381 48.66002709 20.41873528 48.67211914 24.53051758 C48.6771583 25.93026478 48.68398966 27.3300067 48.69262695 28.72973633 C48.7047107 30.73777027 48.70988557 32.74584207 48.71484375 34.75390625 C48.72008057 35.96361084 48.72531738 37.17331543 48.73071289 38.41967773 C48.6171875 41.1953125 48.6171875 41.1953125 47.6171875 42.1953125 C46.21593413 42.29853448 44.8095748 42.3338068 43.40454102 42.34057617 C42.51013809 42.34695602 41.61573517 42.35333588 40.69422913 42.35990906 C39.72134445 42.36102188 38.74845978 42.3621347 37.74609375 42.36328125 C36.25709816 42.36827385 36.25709816 42.36827385 34.73802185 42.37336731 C32.633865 42.3784409 30.52970007 42.3807755 28.42553711 42.38061523 C25.19696867 42.3828008 21.96874223 42.40094949 18.74023438 42.41992188 C16.70052201 42.42285582 14.66080801 42.42484061 12.62109375 42.42578125 C11.65023331 42.43296677 10.67937286 42.44015228 9.67909241 42.44755554 C8.78153732 42.44447891 7.88398224 42.44140228 6.95922852 42.43823242 C6.16726578 42.43965744 5.37530304 42.44108246 4.55934143 42.44255066 C2.6171875 42.1953125 2.6171875 42.1953125 0.6171875 40.1953125 C0.6171875 39.2053125 0.6171875 38.2153125 0.6171875 37.1953125 C-0.0221875 37.0509375 -0.6615625 36.9065625 -1.3203125 36.7578125 C-3.3828125 36.1953125 -3.3828125 36.1953125 -4.3828125 35.1953125 C-4.49603684 32.77040879 -4.54698125 30.37504388 -4.55078125 27.94921875 C-4.55410965 27.22290756 -4.55743805 26.49659637 -4.56086731 25.74827576 C-4.56593925 24.20906204 -4.56827555 22.6698373 -4.56811523 21.13061523 C-4.57030016 18.77113779 -4.58844815 16.41212889 -4.60742188 14.05273438 C-4.61035602 12.55989744 -4.61234067 11.06705827 -4.61328125 9.57421875 C-4.62046677 8.86584366 -4.62765228 8.15746857 -4.63505554 7.42762756 C-4.60205493 0.37721762 -4.60205493 0.37721762 0 0 Z " fill="#3ACDEB" transform="translate(10.3828125,9.8046875)"/>
<path d="M0 0 C2.475 0.495 2.475 0.495 5 1 C5.02465746 5.1117256 5.04283959 9.22342278 5.05493164 13.33520508 C5.0599708 14.73495228 5.06680216 16.1346942 5.07543945 17.53442383 C5.0875232 19.54245777 5.09269807 21.55052957 5.09765625 23.55859375 C5.10289307 24.76829834 5.10812988 25.97800293 5.11352539 27.22436523 C5 30 5 30 4 31 C2.59874663 31.10322198 1.1923873 31.1384943 -0.21264648 31.14526367 C-1.55425087 31.15483345 -1.55425087 31.15483345 -2.92295837 31.16459656 C-3.89584305 31.16570938 -4.86872772 31.1668222 -5.87109375 31.16796875 C-7.36008934 31.17296135 -7.36008934 31.17296135 -8.87916565 31.17805481 C-10.9833225 31.1831284 -13.08748743 31.185463 -15.19165039 31.18530273 C-18.42021883 31.1874883 -21.64844527 31.20563699 -24.87695312 31.22460938 C-26.91666549 31.22754332 -28.95637949 31.22952811 -30.99609375 31.23046875 C-31.96695419 31.23765427 -32.93781464 31.24483978 -33.93809509 31.25224304 C-34.83565018 31.24916641 -35.73320526 31.24608978 -36.65795898 31.24291992 C-37.44992172 31.24434494 -38.24188446 31.24576996 -39.05784607 31.24723816 C-41 31 -41 31 -43 29 C-43 28.01 -43 27.02 -43 26 C-41.7632251 25.97494385 -40.5264502 25.9498877 -39.25219727 25.92407227 C-34.68063287 25.83017747 -30.10922682 25.72991371 -25.5378418 25.62768555 C-23.55610854 25.58426856 -21.57433622 25.54259863 -19.5925293 25.50268555 C-16.7503683 25.44514617 -13.90840517 25.38140555 -11.06640625 25.31640625 C-9.72891075 25.29133751 -9.72891075 25.29133751 -8.36439514 25.26576233 C-4.36051605 25.563413 -4.36051605 25.563413 -1 24 C-0.84235595 22.22130274 -0.74899323 20.43681524 -0.68359375 18.65234375 C-0.62075195 17.03295898 -0.62075195 17.03295898 -0.55664062 15.38085938 C-0.51732422 14.24455078 -0.47800781 13.10824219 -0.4375 11.9375 C-0.39431641 10.79732422 -0.35113281 9.65714844 -0.30664062 8.48242188 C-0.20017161 5.65507805 -0.09815793 2.82764262 0 0 Z " fill="#008AA9" transform="translate(54,21)"/>
<path d="M0 0 C0.90492187 0.02320313 1.80984375 0.04640625 2.7421875 0.0703125 C4.10730469 0.09738281 4.10730469 0.09738281 5.5 0.125 C6.19867188 0.14820313 6.89734375 0.17140625 7.6171875 0.1953125 C7.64605501 4.34113137 7.66394077 8.48692466 7.6796875 12.6328125 C7.68806641 13.81681641 7.69644531 15.00082031 7.70507812 16.22070312 C7.70830078 17.34541016 7.71152344 18.47011719 7.71484375 19.62890625 C7.72008057 20.67103271 7.72531738 21.71315918 7.73071289 22.78686523 C7.6171875 25.1953125 7.6171875 25.1953125 6.6171875 26.1953125 C4.62176854 26.42060174 2.62558886 26.64292345 0.625 26.81640625 C-1.68996657 27.11785092 -1.68996657 27.11785092 -4.3828125 29.1953125 C-4.4406429 24.73703324 -4.47635105 20.2788497 -4.5078125 15.8203125 C-4.52457031 14.54929687 -4.54132812 13.27828125 -4.55859375 11.96875 C-4.56503906 10.75703125 -4.57148437 9.5453125 -4.578125 8.296875 C-4.59383545 6.61585693 -4.59383545 6.61585693 -4.60986328 4.90087891 C-4.31429229 1.37881688 -3.58906767 0.29418587 0 0 Z " fill="#008AA9" transform="translate(10.3828125,9.8046875)"/>
<path d="M0 0 C1.30710937 -0.00257812 2.61421875 -0.00515625 3.9609375 -0.0078125 C4.63479492 -0.00362305 5.30865234 0.00056641 6.00292969 0.00488281 C8.05694103 0.01559601 10.11007796 0.00495737 12.1640625 -0.0078125 C13.47117187 -0.00523438 14.77828125 -0.00265625 16.125 0 C17.31222656 0.00225586 18.49945313 0.00451172 19.72265625 0.00683594 C23.13614755 0.27133161 25.87632082 1.04474127 29.0625 2.265625 C29.0625 2.925625 29.0625 3.585625 29.0625 4.265625 C24.60192112 5.97483464 20.89205136 6.52219208 16.125 6.53125 C14.81789063 6.53382812 13.51078125 6.53640625 12.1640625 6.5390625 C11.49020508 6.53487305 10.81634766 6.53068359 10.12207031 6.52636719 C8.06805897 6.51565399 6.01492204 6.52629263 3.9609375 6.5390625 C2.65382813 6.53648438 1.34671875 6.53390625 0 6.53125 C-1.18722656 6.52899414 -2.37445313 6.52673828 -3.59765625 6.52441406 C-7.01114755 6.25991839 -9.75132082 5.48650873 -12.9375 4.265625 C-12.9375 3.605625 -12.9375 2.945625 -12.9375 2.265625 C-8.47692112 0.55641536 -4.76705136 0.00905792 0 0 Z " fill="#000000" transform="translate(23.9375,57.734375)"/>
<path d="M0 0 C0.05791844 3.12492251 0.09356746 6.24970766 0.125 9.375 C0.14175781 10.26445313 0.15851562 11.15390625 0.17578125 12.0703125 C0.18222656 12.92109375 0.18867187 13.771875 0.1953125 14.6484375 C0.20578613 15.43395996 0.21625977 16.21948242 0.22705078 17.02880859 C0 19 0 19 -2 21 C-3.87939453 21.22705078 -3.87939453 21.22705078 -6.1328125 21.1953125 C-6.93847656 21.18886719 -7.74414062 21.18242188 -8.57421875 21.17578125 C-9.41597656 21.15902344 -10.25773437 21.14226563 -11.125 21.125 C-12.39923828 21.11146484 -12.39923828 21.11146484 -13.69921875 21.09765625 C-15.79959884 21.07405647 -17.89983444 21.03818483 -20 21 C-19.625 19.0625 -19.625 19.0625 -19 17 C-16.23547967 15.61773984 -13.9538637 15.90474613 -10.875 15.9375 C-9.77929688 15.94652344 -8.68359375 15.95554687 -7.5546875 15.96484375 C-6.71164063 15.97644531 -5.86859375 15.98804688 -5 16 C-5.03480469 15.09636719 -5.06960937 14.19273438 -5.10546875 13.26171875 C-5.13253906 12.08222656 -5.15960938 10.90273438 -5.1875 9.6875 C-5.23970703 7.92986328 -5.23970703 7.92986328 -5.29296875 6.13671875 C-5 3 -5 3 -3.61328125 1.08203125 C-2 0 -2 0 0 0 Z " fill="#2EB1CB" transform="translate(54,26)"/>
<path d="M0 0 C-0.33 2.31 -0.66 4.62 -1 7 C-1.7425 7.2475 -2.485 7.495 -3.25 7.75 C-6.20124062 9.09147301 -7.84814974 10.60905526 -10 13 C-10.5775 12.67 -11.155 12.34 -11.75 12 C-14.19883862 10.72924102 -14.19883862 10.72924102 -18 11 C-18.680625 11.515625 -19.36125 12.03125 -20.0625 12.5625 C-20.701875 13.036875 -21.34125 13.51125 -22 14 C-22.99 13.67 -23.98 13.34 -25 13 C-23.4169423 8.7257442 -20.49431596 6.73468206 -17 4 C-16.4225 4.33 -15.845 4.66 -15.25 5 C-12.80116138 6.27075898 -12.80116138 6.27075898 -9 6 C-8.67 4.35 -8.34 2.7 -8 1 C-5.23735711 0.40267181 -2.83967231 0 0 0 Z " fill="#F54154" transform="translate(45,21)"/>
<path d="M0 0 C0.90492187 0.02320313 1.80984375 0.04640625 2.7421875 0.0703125 C4.10730469 0.09738281 4.10730469 0.09738281 5.5 0.125 C6.19867188 0.14820313 6.89734375 0.17140625 7.6171875 0.1953125 C7.2871875 1.8453125 6.9571875 3.4953125 6.6171875 5.1953125 C4.6371875 5.1953125 2.6571875 5.1953125 0.6171875 5.1953125 C0.65199219 6.02675781 0.68679687 6.85820312 0.72265625 7.71484375 C0.74972656 8.80152344 0.77679687 9.88820313 0.8046875 11.0078125 C0.83949219 12.08675781 0.87429687 13.16570313 0.91015625 14.27734375 C0.6171875 17.1953125 0.6171875 17.1953125 -0.76953125 19.08203125 C-2.3828125 20.1953125 -2.3828125 20.1953125 -4.3828125 20.1953125 C-4.43660476 17.23673841 -4.47638343 14.27913529 -4.5078125 11.3203125 C-4.52457031 10.47855469 -4.54132812 9.63679688 -4.55859375 8.76953125 C-4.56503906 7.96386719 -4.57148437 7.15820312 -4.578125 6.328125 C-4.59383545 5.21268311 -4.59383545 5.21268311 -4.60986328 4.07470703 C-4.23650913 0.98429813 -2.99225259 0.24526661 0 0 Z " fill="#49ABC2" transform="translate(10.3828125,9.8046875)"/>
<path d="M0 0 C7.26 0 14.52 0 22 0 C22 1.32 22 2.64 22 4 C14.74 4 7.48 4 0 4 C0 2.68 0 1.36 0 0 Z " fill="#FB3D50" transform="translate(21,37)"/>
<path d="M0 0 C0.99 0 1.98 0 3 0 C3 2.64 3 5.28 3 8 C2.01 8 1.02 8 0 8 C0 5.36 0 2.72 0 0 Z " fill="#EFF7F9" transform="translate(8,15)"/>
</svg>
